<?xml version="1.0" encoding="UTF-8"?>
<svg width="30px" height="30px" viewBox="0 0 30 30" version="1.1" xmlns="http://www.w3.org/2000/svg" xmlns:xlink="http://www.w3.org/1999/xlink">
    <!-- Generator: Sketch 51.2 (57519) - http://www.bohemiancoding.com/sketch -->
    <title>Add-Sub Buttons</title>
    <desc>Created with Sketch.</desc>
    <defs></defs>
    <g id="Iter3---Annotation" stroke="none" stroke-width="1" fill="none" fill-rule="evenodd">
        <g id="02---Dashboard-1" transform="translate(-319.000000, -104.000000)" fill="#8EA2C2">
            <g id="Add-Sub-Buttons" transform="translate(319.000000, 104.000000)">
                <g id="Add">
                    <path d="M27.0180723,0 L9.12650602,0 C7.48644578,0 6.14457831,1.34186747 6.14457831,2.98192771 L6.14457831,20.873494 C6.14457831,22.5135542 7.48644578,23.8554217 9.12650602,23.8554217 L27.0180723,23.8554217 C28.6581325,23.8554217 30,22.5135542 30,20.873494 L30,2.98192771 C30,1.34186747 28.6581325,0 27.0180723,0 Z M9.12650602,20.873494 L9.12650602,2.98192771 L27.0180723,2.98192771 L27.0180723,20.873494 L9.12650602,20.873494 Z" id="Fill-1"></path>
                    <path d="M2.98795181,7.59036145 L0,7.59036145 L0,27.0120482 C0,28.6554217 1.34457831,30 2.98795181,30 L22.4096386,30 L22.4096386,27.0120482 L2.98795181,27.0120482 L2.98795181,7.59036145 Z" id="Fill-2"></path>
                    <polygon id="Fill-3" points="19.3975904 7.59036145 16.3855422 7.59036145 16.3855422 10.6024096 13.373494 10.6024096 13.373494 13.6144578 16.3855422 13.6144578 16.3855422 16.626506 19.3975904 16.626506 19.3975904 13.6144578 22.4096386 13.6144578 22.4096386 10.6024096 19.3975904 10.6024096"></polygon>
                </g>
            </g>
        </g>
    </g>
</svg>