<?xml version="1.0" encoding="UTF-8"?>
<svg width="336px" height="17px" viewBox="0 0 336 17" version="1.1" xmlns="http://www.w3.org/2000/svg" xmlns:xlink="http://www.w3.org/1999/xlink">
    <!-- Generator: Sketch 51.2 (57519) - http://www.bohemiancoding.com/sketch -->
    <title>Divider</title>
    <desc>Created with Sketch.</desc>
    <defs></defs>
    <g id="Iter3---Annotation" stroke="none" stroke-width="1" fill="none" fill-rule="evenodd">
        <g id="07---Reebok-(Promo1)-Nav4" transform="translate(-20.000000, -472.000000)">
            <g id="Divider" transform="translate(21.000000, 472.000000)">
                <path d="M333.5,8.5 L0.5,8.5" id="Line" stroke="#8EA2C2" stroke-width="3" stroke-linecap="square"></path>
                <g id="Triangle-Pair" transform="translate(12.000000, 3.000000)" fill="#8EA2C2">
                    <g id="Right" transform="translate(190.000000, 0.000000)" stroke="#051C40" stroke-width="2">
                        <rect id="Rectangle" transform="translate(16.343146, 5.671573) rotate(45.000000) translate(-16.343146, -5.671573) " x="13.3431458" y="2.67157288" width="6" height="6"></rect>
                        <rect id="Rectangle" transform="translate(11.343146, 5.671573) rotate(45.000000) translate(-11.343146, -5.671573) " x="8.34314575" y="2.67157288" width="6" height="6"></rect>
                        <rect id="Rectangle" transform="translate(6.343146, 5.671573) rotate(45.000000) translate(-6.343146, -5.671573) " x="3.34314575" y="2.67157288" width="6" height="6"></rect>
                    </g>
                    <rect id="Rectangle" transform="translate(191.343146, 5.671573) rotate(45.000000) translate(-191.343146, -5.671573) " x="187.343146" y="1.67157288" width="8" height="8"></rect>
                    <g id="Right" transform="translate(290.000000, 0.000000)" stroke="#051C40" stroke-width="2">
                        <rect id="Rectangle" transform="translate(16.343146, 5.671573) rotate(45.000000) translate(-16.343146, -5.671573) " x="13.3431458" y="2.67157288" width="6" height="6"></rect>
                        <rect id="Rectangle" transform="translate(11.343146, 5.671573) rotate(45.000000) translate(-11.343146, -5.671573) " x="8.34314575" y="2.67157288" width="6" height="6"></rect>
                        <rect id="Rectangle" transform="translate(6.343146, 5.671573) rotate(45.000000) translate(-6.343146, -5.671573) " x="3.34314575" y="2.67157288" width="6" height="6"></rect>
                    </g>
                    <g id="Left" transform="translate(100.000000, 0.000000)" stroke="#051C40" stroke-width="2">
                        <rect id="Rectangle" transform="translate(6.343146, 5.671573) rotate(45.000000) translate(-6.343146, -5.671573) " x="3.34314575" y="2.67157288" width="6" height="6"></rect>
                        <rect id="Rectangle" transform="translate(11.343146, 5.671573) rotate(45.000000) translate(-11.343146, -5.671573) " x="8.34314575" y="2.67157288" width="6" height="6"></rect>
                        <rect id="Rectangle" transform="translate(16.343146, 5.671573) rotate(45.000000) translate(-16.343146, -5.671573) " x="13.3431458" y="2.67157288" width="6" height="6"></rect>
                    </g>
                    <rect id="Rectangle" transform="translate(121.343146, 5.671573) rotate(45.000000) translate(-121.343146, -5.671573) " x="117.343146" y="1.67157288" width="8" height="8"></rect>
                    <g id="Left" stroke="#051C40" stroke-width="2">
                        <rect id="Rectangle" transform="translate(6.343146, 5.671573) rotate(45.000000) translate(-6.343146, -5.671573) " x="3.34314575" y="2.67157288" width="6" height="6"></rect>
                        <rect id="Rectangle" transform="translate(11.343146, 5.671573) rotate(45.000000) translate(-11.343146, -5.671573) " x="8.34314575" y="2.67157288" width="6" height="6"></rect>
                        <rect id="Rectangle" transform="translate(16.343146, 5.671573) rotate(45.000000) translate(-16.343146, -5.671573) " x="13.3431458" y="2.67157288" width="6" height="6"></rect>
                    </g>
                </g>
                <path d="M333.5,12.5 L0.5,12.5" id="Line" stroke="#8EA2C2" stroke-linecap="square"></path>
                <polyline id="Line" stroke="#8EA2C2" stroke-linecap="square" points="333.5 4.5 184.864593 4.5 0.5 4.5 193.34999 10.2582023"></polyline>
                <rect id="Rectangle" stroke="#8EA2C2" stroke-width="3" fill="#051C40" transform="translate(168.485281, 8.485281) rotate(45.000000) translate(-168.485281, -8.485281) " x="163.985281" y="3.98528137" width="9" height="9"></rect>
            </g>
        </g>
    </g>
</svg>