<?xml version="1.0" encoding="UTF-8"?>
<svg width="25px" height="25px" viewBox="0 0 25 25" version="1.1" xmlns="http://www.w3.org/2000/svg" xmlns:xlink="http://www.w3.org/1999/xlink">
    <!-- Generator: Sketch 51.2 (57519) - http://www.bohemiancoding.com/sketch -->
    <title>Page 1</title>
    <desc>Created with Sketch.</desc>
    <defs></defs>
    <g id="Iter3---Annotation" stroke="none" stroke-width="1" fill="none" fill-rule="evenodd">
        <g id="07---Reebok-(Promo1)-Nav4" transform="translate(-324.000000, -548.000000)" fill="#8EA2C2">
            <g id="Tag" transform="translate(0.000000, 548.000000)">
                <g id="Tag-Section-1">
                    <path d="M345.641197,0 L331.361949,14.2792477 L330.944444,18.0555556 L334.720752,17.6380507 L349,3.35880303 L345.641197,0 Z M324,3.47222222 L324,25 L345.527778,25 L345.527778,8.5459237 L335.58613,18.4875573 C335.393418,18.6814386 335.138801,18.8029089 334.866684,18.833257 L331.063742,19.2537059 C330.701687,19.2922495 330.341934,19.1649398 330.086172,18.9068102 C329.82922,18.6486925 329.704263,18.2877977 329.746302,17.9269089 L330.166752,14.1239725 C330.198287,13.854176 330.319754,13.6042269 330.512452,13.4138558 L340.44483,3.47222222 L324,3.47222222 Z" id="Page-1"></path>
                </g>
            </g>
        </g>
    </g>
</svg>