<?xml version="1.0" encoding="UTF-8"?>
<svg width="25px" height="25px" viewBox="0 0 25 25" version="1.1" xmlns="http://www.w3.org/2000/svg" xmlns:xlink="http://www.w3.org/1999/xlink">
    <!-- Generator: Sketch 51.2 (57519) - http://www.bohemiancoding.com/sketch -->
    <title>Page 1</title>
    <desc>Created with Sketch.</desc>
    <defs></defs>
    <g id="Iter3---Annotation" stroke="none" stroke-width="1" fill="none" fill-rule="evenodd">
        <g id="07---Reebok-(Promo1)-Nav4" transform="translate(-76.000000, -508.000000)" fill="#F1EFF7">
            <g id="SubHeader" transform="translate(76.000000, 504.000000)">
                <path d="M24.2741786,16.8228454 L12.1771546,4.72582144 C11.7734044,4.24194048 11.129262,4 10.4835713,4 L2.41940479,4 C1.0478926,4 0,5.0478926 0,6.41940479 L0,14.4835713 C0,15.129262 0.241940479,15.7734044 0.725821436,16.1771546 L12.8228454,28.2741786 C13.3067263,28.7580595 13.9524171,29 14.5164287,29 C15.0804404,29 15.7261311,28.7580595 16.2100121,28.2741786 L24.2741786,20.2100121 C25.2419405,19.3223808 25.2419405,17.7104766 24.2741786,16.8228454 Z M5.3030303,10.8181818 C4.46947886,10.8181818 3.78787879,10.1365817 3.78787879,9.3030303 C3.78787879,8.46947886 4.46947886,7.78787879 5.3030303,7.78787879 C6.13658175,7.78787879 6.81818182,8.46947886 6.81818182,9.3030303 C6.81818182,10.1365817 6.13658175,10.8181818 5.3030303,10.8181818 Z" id="Page-1"></path>
            </g>
        </g>
    </g>
</svg>